<svg width="470" height="471" viewBox="0 0 470 471" fill="none" xmlns="http://www.w3.org/2000/svg">
<path d="M241 0C250.75 1 260.48 2.41 270.25 2.86C278.8 3.25 282.95 6.87 285.88 15.2C299.17 52.86 312.07 90.59 319.5 129.94C320.7 136.28 321.62 142.67 322.73 149.43H147.27C149.33 138.24 151.17 127.46 153.32 116.75C160.84 79.27 173.87 43.49 187.27 7.85C187.88 6.22 190.51 4.59 192.39 4.33C202.76 2.89 213.2 1.88 223.61 0.71C225.41 0.51 227.2 0.24 229 0C233 0 237 0 241 0Z" fill="white"/>
<path d="M228 470C216.78 468.67 205.58 467.24 194.35 466.07C189.55 465.57 187.05 463.66 185.51 458.67C179.18 438.19 172.18 417.91 165.62 397.5C164.87 395.17 164.68 392.18 165.46 389.92C172.96 368.06 180.75 346.31 188.36 324.49C189.33 321.72 190.37 320.15 193.83 320.17C235.63 320.31 277.43 320.26 319.24 320.27C320.22 320.27 321.19 320.41 323.03 320.55C320.83 332.04 318.8 343.25 316.54 354.41C309.32 390.07 296.59 424.03 284.62 458.24C282.82 463.38 280.53 465.77 275.17 466.26C264.43 467.24 253.73 468.73 243.02 470.01H228.02L228 470Z" fill="white"/>
<path d="M0 361C1.88 356.48 5.39 353.83 9.66 351.58C59.66 325.18 109.59 298.64 159.54 272.16C161.89 270.92 164.41 269.98 166.71 268.65C170.66 266.36 174.37 266.51 177.74 269.55C181.25 272.72 182.58 276.66 180.96 281.29C177.34 291.65 173.67 301.99 170.02 312.33C152.66 361.55 135.27 410.76 117.96 460C116.25 464.85 114 468.82 108.24 469.34C102.09 469.9 98.16 466.89 96.16 459.92C90.2 439.15 84.16 418.4 78.43 397.56C77.45 394 75.74 392.46 72.31 391.51C52.13 385.88 32.07 379.84 11.85 374.36C6.28 372.85 2.26 370.27 0 365L0 361Z" fill="white"/>
<path d="M470 242C469.01 251.24 468.36 260.53 466.94 269.7C465.45 279.38 463.23 288.95 461.29 298.72H347.45C352.03 256.18 351.9 213.85 347.09 171.26H460.67C465.39 186.85 467.92 202.87 469.04 219.15C469.24 222.1 469.66 225.04 469.99 227.99V241.99L470 242Z" fill="white"/>
<path d="M0 226C0.99 217.42 1.68 208.8 3.06 200.28C4.63 190.61 6.81 181.03 8.76 171.27H122.39C121.5 186.3 120.23 201.06 119.86 215.84C119.46 231.65 119.78 247.49 120.1 263.31C120.18 267.09 119.34 269.21 115.77 271.05C99.19 279.57 82.81 288.47 66.33 297.17C64.76 298 62.96 298.91 61.26 298.92C44.11 299.05 26.96 299 9.49 299C4.85 283.14 2.08 267.16 0.94 250.88C0.76 248.57 0.31 246.29 0 244C0 238 0 232 0 226Z" fill="white"/>
<path d="M325.63 171.28C330.41 213.82 330.61 256.1 325.76 298.7H197.72C198.95 294.96 200.13 291.4 201.29 287.83C205.55 274.7 202.13 263.34 192.37 254.17C182.59 244.98 170.95 243.22 158.56 248.43C152.79 250.86 147.31 253.96 140.08 257.57C141.16 228.1 142.19 199.8 143.24 171.28H325.63Z" fill="white"/>
<path d="M453.4 149.46C451.22 149.58 449.78 149.74 448.34 149.74C415.36 149.75 382.38 149.67 349.4 149.85C345.27 149.87 344.24 148.48 343.65 144.62C337 101.55 325.16 59.8599 309.63 19.1899C308.8 17.0199 308 14.8499 306.8 11.6499C340.94 22.7599 370.28 40.2799 395.77 64.3099C421.17 88.2599 440.34 116.45 453.41 149.47L453.4 149.46Z" fill="white"/>
<path d="M453.82 320.25C424.99 388.35 376.82 434.02 306.95 458.6C310.08 449.93 312.85 442.4 315.52 434.83C327.66 400.43 338.05 365.56 343.46 329.37C344.83 320.23 344.98 320.25 354.15 320.25C385.14 320.25 416.12 320.25 447.11 320.25H453.82Z" fill="white"/>
<path d="M162.57 11.8198C156.37 30.0398 150.14 47.3798 144.57 64.9398C136.16 91.4398 129.3 118.34 125.75 146C125.57 147.37 123.57 149.58 122.41 149.59C87.44 149.78 52.48 149.75 16.54 149.75C25.93 125.43 38.79 103.92 55.13 84.4898C83.88 50.2798 119.49 26.1298 162.57 11.8198Z" fill="white"/>
<path d="M163.07 458.43C155.93 455.72 150.07 453.5 143.76 451.1C146.57 443.12 149.25 435.53 152.34 426.76C156.05 437.72 159.37 447.49 163.07 458.43Z" fill="white"/>
</svg>
