<svg width="163" height="144" viewBox="0 0 163 144" fill="none" xmlns="http://www.w3.org/2000/svg">
<path d="M88.1102 49.9152H51.1549L39.5957 30.1481H99.6694L117.172 5.46706e-06H17.8781C14.7532 -0.00243863 11.6823 0.814649 8.97178 2.36974C6.26129 3.92482 4.006 6.16353 2.43095 8.86247C0.839727 11.5436 0 14.6039 0 17.7217C0 20.8395 0.839727 23.8997 2.43095 26.5809L65.7446 135.274C70.7191 143.704 81.735 146.512 90.2702 141.544C92.8706 140 95.0581 137.848 96.6454 135.274L98.6941 131.706L69.6325 81.5753L88.1102 49.9152Z" fill="white"/>
<path d="M160.181 8.86273C158.616 6.15385 156.362 3.90723 153.648 2.35076C150.934 0.794296 147.856 -0.0166272 144.728 0.000258411H140.408L92.8621 81.5755L110.371 111.724L160.181 26.3651C161.72 23.7053 162.53 20.6868 162.53 17.6139C162.53 14.5411 161.72 11.5226 160.181 8.86273Z" fill="white"/>
</svg>
