<svg width="120" height="102" viewBox="0 0 120 102" fill="none" xmlns="http://www.w3.org/2000/svg">
<path fill-rule="evenodd" clip-rule="evenodd" d="M46.6015 18.9925L48.1354 22.7877C56.3185 18.7104 64.8323 18.7174 73.2789 18.7244C74.1919 18.7251 75.1041 18.7259 76.0151 18.7215L76.6466 14.9715C72.2256 13.2094 67.7594 13.1642 63.203 13.2546L62.6617 11.5377C62.7785 11.4845 62.8979 11.4313 63.0186 11.3775C63.4104 11.2029 63.8161 11.0221 64.1955 10.8148C66 9.77567 66.9925 7.74253 66.6767 5.66421C66.5414 3.72144 65.2782 2.04975 63.4737 1.41722C61.4887 0.649148 59.5038 0.875052 57.8346 2.4112C55.0376 4.9865 55.6241 9.2335 59.1429 11.0407C60.1805 11.5829 60.8572 12.1702 60.7669 13.5257C55.6692 14.2034 50.8421 15.604 46.6015 18.9925ZM20.3952 69.825L20.3952 69.8251L20.3952 69.8252C20.5642 70.6492 20.7336 71.4749 20.8872 72.3059C28.2857 73.842 35.5038 74.9715 42.7669 75.1523C48.0902 75.2878 53.4136 75.1071 58.7369 74.7456C64.3308 74.3842 69.9248 73.842 75.4737 72.8932C85.6241 71.1312 95.3684 67.7426 104.391 62.7727C106.154 61.8243 107.847 60.7813 109.554 59.7292L109.555 59.7286C110.206 59.3274 110.859 58.9248 111.519 58.5257C111.429 58.0739 111.293 57.6221 111.113 57.2155C110.766 56.4845 110.421 55.7536 110.077 55.0233C108.718 52.1428 107.364 49.2739 105.925 46.4625C102.18 39.1884 97.3083 32.7275 90.9925 27.4865C84.8572 22.4263 77.8196 19.4444 69.7444 19.6703C60.6767 19.851 51.6993 21.7938 43.3534 25.363C36.406 28.345 30.3609 32.6371 25.9399 38.8269C20.3008 46.6884 18.2707 55.4986 19.5339 65.0318C19.7421 66.6405 20.068 68.2296 20.3952 69.825ZM46.5113 62.5468C38.6617 62.4565 32.2105 56.0408 32.3459 48.089C32.391 40.1823 38.8421 33.8118 46.7369 33.8118C54.3609 33.8118 61.173 39.4143 61.173 48.2697C61.173 56.8089 54.0902 62.6372 46.5113 62.5468ZM96.9023 43.1191C96.8572 48.9926 92.0752 52.5619 87.7895 52.2456C82.6918 52.2456 78.8572 48.3149 78.8572 43.1643V43.0287C78.9474 38.104 83.0075 34.1281 87.9699 34.2185H88.1504C93.0226 34.2636 96.9474 38.2396 96.9023 43.1191ZM106.737 80.9806C110.526 74.836 112.421 68.1492 111.79 60.5589C83.4587 77.9083 53.2782 81.1613 21.4737 73.7968L21.4785 73.8598C21.5222 74.4292 21.5688 75.0376 21.6993 75.6041C24.6316 85.3179 30.2256 92.9535 39.2481 97.7426C44.4812 100.499 50.3459 101.357 56.1654 101.764C65.9098 102.487 75.6993 101.176 84.9023 97.833C93.9248 94.5348 101.594 89.2938 106.737 80.9806ZM110.301 32.9534C112.647 32.095 112.647 32.0498 112.421 29.8359C112.286 28.5709 112.241 27.3058 112.872 26.0859C113.083 25.6996 113.102 25.2314 113.122 24.7662C113.127 24.6329 113.133 24.4999 113.143 24.3691C113.233 22.5618 114.722 21.1612 116.526 21.1612C118.331 21.1612 119.865 22.607 119.955 24.4142C119.955 26.2215 118.511 27.7124 116.707 27.8028C116.33 27.8319 115.953 27.8235 115.515 27.8139H115.515C115.273 27.8086 115.012 27.8028 114.722 27.8028C114.697 28.0543 114.665 28.2987 114.633 28.5372C114.552 29.1556 114.476 29.7334 114.541 30.2877C114.812 32.5016 114.451 34.354 111.925 35.3028L117.068 44.4293L109.353 49.2185C106.105 41.6733 101.143 35.4383 95.188 29.7456L99.7895 24.1432C104.075 26.1763 107.278 29.4293 110.301 32.9534ZM17.4587 60.9203L9.96995 58.3902C9.60905 53.8721 10.5564 49.6703 12.2256 45.5588L9.60905 41.4022C9.31349 41.4022 9.01794 41.4198 8.7265 41.4371H8.72647C8.08373 41.4754 7.46097 41.5125 6.90228 41.357C5.09777 40.9504 3.33837 40.4082 1.6692 39.7305C0.360925 39.1884 -0.225541 37.3811 0.135361 36.0709C0.631601 34.4896 2.12032 33.4956 3.74438 33.6311C5.27822 33.7667 6.54138 34.9414 6.76694 36.4775C6.82582 36.9493 6.80785 37.4402 6.78826 37.9756C6.77783 38.2606 6.76694 38.5582 6.76694 38.8721H10.7369C11.713 39.2684 12.0874 40.1283 12.4827 41.0361C12.7634 41.6805 13.0545 42.3492 13.579 42.8932L13.7442 42.6765C16.169 39.4962 18.5784 36.336 22.1955 34.0829L25.6241 36.7486C25.2995 37.197 24.9722 37.6418 24.6459 38.0852C22.3421 41.2162 20.093 44.2728 19.2632 47.9534C18.6004 50.9246 18.2688 53.8957 17.9286 56.9442C17.7825 58.2533 17.6349 59.5766 17.4587 60.9203Z" fill="white"/>
</svg>
