<svg width="71" height="71" viewBox="0 0 71 71" fill="none" xmlns="http://www.w3.org/2000/svg">
<rect width="71" height="71" rx="35.5" fill="black"/>
<path fill-rule="evenodd" clip-rule="evenodd" d="M35.5005 20.2822C28.6955 20.2822 24.4435 23.6642 22.7415 30.4282C25.2935 27.0462 28.2705 25.7782 31.6725 26.6232C33.6135 27.1052 35.0015 28.5052 36.5365 30.0552C39.0385 32.5792 41.9345 35.5002 48.2585 35.5002C55.0625 35.5002 59.3155 32.1182 61.0165 25.3552C58.4655 28.7372 55.4885 30.0052 52.0865 29.1592C50.1445 28.6772 48.7565 27.2772 47.2215 25.7282C44.7195 23.2022 41.8245 20.2822 35.5005 20.2822ZM22.7415 35.5002C15.9375 35.5002 11.6845 38.8822 9.98352 45.6462C12.5355 42.2642 15.5125 40.9962 18.9135 41.8412C20.8555 42.3232 22.2435 43.7232 23.7785 45.2732C26.2805 47.7972 29.1755 50.7182 35.5005 50.7182C42.3045 50.7182 46.5575 47.3372 48.2585 40.5732C45.7065 43.9552 42.7295 45.2232 39.3275 44.3782C37.3865 43.8952 35.9985 42.4952 34.4635 40.9462C31.9615 38.4222 29.0655 35.5002 22.7415 35.5002Z" fill="white"/>
</svg>
